<?xml version="1.0" encoding="UTF-8" standalone="no"?>
<!-- Created with Inkscape (http://www.inkscape.org/) -->

<svg
   xmlns:dc="http://purl.org/dc/elements/1.1/"
   xmlns:cc="http://creativecommons.org/ns#"
   xmlns:rdf="http://www.w3.org/1999/02/22-rdf-syntax-ns#"
   xmlns:svg="http://www.w3.org/2000/svg"
   xmlns="http://www.w3.org/2000/svg"
   xmlns:sodipodi="http://sodipodi.sourceforge.net/DTD/sodipodi-0.dtd"
   xmlns:inkscape="http://www.inkscape.org/namespaces/inkscape"
   width="77.046669mm"
   height="30.141001mm"
   viewBox="0 0 273.00001 106.79882"
   id="svg3539"
   version="1.1"
   inkscape:version="0.91 r13725"
   sodipodi:docname="alpha-blog-banner.svg">
  <sodipodi:namedview
     inkscape:snap-global="true"
     inkscape:snap-nodes="true"
     inkscape:object-nodes="false"
     id="base"
     pagecolor="#ffffff"
     bordercolor="#666666"
     borderopacity="1.0"
     inkscape:pageopacity="0.0"
     inkscape:pageshadow="2"
     inkscape:zoom="1.7619048"
     inkscape:cx="199.18723"
     inkscape:cy="29.22355"
     inkscape:document-units="px"
     inkscape:current-layer="layer1"
     showgrid="false"
     inkscape:window-width="1366"
     inkscape:window-height="705"
     inkscape:window-x="-8"
     inkscape:window-y="-8"
     inkscape:window-maximized="1"
     fit-margin-top="0"
     fit-margin-left="0"
     fit-margin-right="0"
     fit-margin-bottom="0" />
  <defs
     id="defs3541">
    <inkscape:path-effect
       bendpath4-nodetypes="cc"
       bendpath3-nodetypes="cc"
       bendpath2-nodetypes="cc"
       bendpath1-nodetypes="cc"
       bendpath4="m 215.94612,666.87629 c 21.22381,17.15913 24.78639,33.51547 0,48.58322"
       bendpath3="m 215.94612,715.45951 c 95.9098,83.12565 185.87879,75.95095 271.32302,0"
       bendpath2="m 487.26914,666.87629 c -8.68247,22.94744 -10.13988,40.27539 0,48.58322"
       bendpath1="m 215.94612,666.87629 c 85.98173,-31.21492 174.91762,-41.75079 271.32302,0"
       xx="true"
       yy="true"
       is_visible="true"
       id="path-effect3611"
       effect="envelope" />
    <inkscape:path-effect
       bendpath-nodetypes="cc"
       vertical="false"
       scale_y_rel="false"
       prop_scale="1"
       bendpath="m 212.65702,706.16854 c 78.40793,120.32924 241.54063,-78.40198 349.0332,0"
       is_visible="true"
       id="path-effect3607"
       effect="bend_path" />
    <inkscape:path-effect
       is_visible="true"
       id="path-effect3605"
       effect="spiro" />
  </defs>
  <metadata
     id="metadata3544">
    <rdf:RDF>
      <cc:Work
         rdf:about="">
        <dc:format>image/svg+xml</dc:format>
        <dc:type
           rdf:resource="http://purl.org/dc/dcmitype/StillImage" />
        <dc:title></dc:title>
      </cc:Work>
    </rdf:RDF>
  </metadata>
  <g
     id="layer1"
     inkscape:groupmode="layer"
     inkscape:label="Layer 1"
     transform="translate(-11.513514,-523.40335)">
    <text
       sodipodi:linespacing="125%"
       id="text5149"
       y="750.98383"
       x="173.10811"
       style="font-style:normal;font-weight:normal;font-size:40px;line-height:125%;font-family:sans-serif;letter-spacing:0px;word-spacing:0px;fill:#000000;fill-opacity:1;stroke:none;stroke-width:1px;stroke-linecap:butt;stroke-linejoin:miter;stroke-opacity:1"
       xml:space="preserve"><tspan
         y="750.98383"
         x="173.10811"
         id="tspan5151"
         sodipodi:role="line" /></text>
    <text
       sodipodi:linespacing="125%"
       id="text5155"
       y="748.146"
       x="159.4865"
       style="font-style:normal;font-weight:normal;font-size:35px;line-height:125%;font-family:sans-serif;letter-spacing:0px;word-spacing:0px;fill:#000000;fill-opacity:1;stroke:none;stroke-width:1px;stroke-linecap:butt;stroke-linejoin:miter;stroke-opacity:1"
       xml:space="preserve"><tspan
         y="748.146"
         x="159.4865"
         id="tspan5157"
         sodipodi:role="line" /></text>
    <g
       id="g7320"
       transform="translate(-75.486486,-116.91892)">
      <path
         style="color:#000000;font-style:normal;font-variant:normal;font-weight:normal;font-stretch:normal;font-size:medium;line-height:normal;font-family:sans-serif;text-indent:0;text-align:start;text-decoration:none;text-decoration-line:none;text-decoration-style:solid;text-decoration-color:#000000;letter-spacing:normal;word-spacing:normal;text-transform:none;direction:ltr;block-progression:tb;writing-mode:lr-tb;baseline-shift:baseline;text-anchor:start;white-space:normal;clip-rule:nonzero;display:inline;overflow:visible;visibility:visible;opacity:0.53200001;isolation:auto;mix-blend-mode:normal;color-interpolation:sRGB;color-interpolation-filters:linearRGB;solid-color:#000000;solid-opacity:1;fill:#000000;fill-opacity:1;fill-rule:nonzero;stroke:none;stroke-width:15;stroke-linecap:butt;stroke-linejoin:miter;stroke-miterlimit:4;stroke-dasharray:none;stroke-dashoffset:0;stroke-opacity:1;color-rendering:auto;image-rendering:auto;shape-rendering:auto;text-rendering:auto;enable-background:accumulate"
         d="m 223.49805,640.32227 c -42.20261,0.01 -83.01687,8.0918 -115.64258,23.16406 l -4.35547,2.01172 0,8.33593 0,5.49414 c -4.461691,2.19327 -8.79568,4.47017 -12.861328,6.91211 L 87,688.42578 l 0,58.46289 11.353516,-6.80078 c 8.903384,-5.33255 19.059194,-10.11697 30.226564,-14.20703 l 4.91992,-1.80274 0,-13.43164 c 26.70532,-9.19719 57.95329,-14.26224 89.99219,-14.32421 32.01681,0.0338 63.25992,5.06431 89.98242,14.22656 l 0,18.41992 7.45703,-2.0625 c 10.1494,3.91262 19.49857,8.35312 27.67969,13.3125 L 360,747.12109 l 0,-58.75586 -3.69336,-2.17578 c -4.0548,-2.38864 -8.36917,-4.61696 -12.80664,-6.76172 l 0,-5.48632 0,-8.32813 -4.3457,-2.01562 C 306.55447,648.48354 265.73614,640.36252 223.50781,640.32227 l -0.006,0 -0.004,0 z m 0.002,7.5 A 173.5,94 0 0 1 336,670.40234 l 0,13.64649 -0.9082,28.89453 6.51562,-26.06445 A 173.5,94 0 0 1 352.5,692.65234 l 0,41.15235 A 173.5,94 0 0 0 321,718.80664 l 0,-0.56836 14.00391,-5.41211 A 173.5,122.61185 0 0 0 321,705.27344 l 0,-0.0801 A 173.5,94 0 0 0 223.5,688.82227 173.5,94 0 0 0 126,705.28906 l 0,13.54883 A 173.5,94 0 0 0 94.5,733.6543 l 0,-40.98438 a 173.5,94 0 0 1 10.87305,-5.84961 L 111.9082,712.9668 111,684.07227 l 0,-13.77735 a 173.5,94 0 0 1 112.5,-22.47265 z m -111.5918,65.14453 14.08985,5.44726 0,-13.04687 a 173.5,122.61185 0 0 0 -14.08985,7.59961 z"
         id="path4569"
         inkscape:connector-curvature="0" />
      <g
         style="fill:#ff0000"
         id="g5781">
        <path
           d="m 151.33984,693.98828 c 0,0 -2.91442,0.84959 -2.91442,0.84959 0,0 -2.01661,-8.88549 -2.01661,-8.88549 0,0 -8.8952,2.59126 -8.8952,2.59126 0,0 -2.01661,10.06305 -2.01661,10.06305 0,0 -2.7763,0.80933 -2.7763,0.80933 0,0 7.48633,-36.17687 7.48633,-36.17687 0,0 3.64648,-1.06033 3.64648,-1.06033 0,0 7.48633,31.80946 7.48633,31.80946 0,0 0,0 0,0 m -5.77359,-11.67117 c 0,0 -3.60504,-15.63853 -3.60504,-15.63853 0,0 -3.61885,17.74231 -3.61885,17.74231 0,0 7.22389,-2.10378 7.22389,-2.10378 0,0 0,0 0,0"
           style="font-style:normal;font-weight:normal;font-size:medium;line-height:125%;font-family:sans-serif;letter-spacing:0px;word-spacing:0px;fill:#ff0000;fill-opacity:1;stroke:none;stroke-width:1px;stroke-linecap:butt;stroke-linejoin:miter;stroke-opacity:1"
           id="path5214"
           inkscape:connector-curvature="0" />
        <path
           d="m 167.94727,690.4043 c 0,0 -13.80665,2.83984 -13.80665,2.83984 0,0 0,-33.97461 0,-33.97461 0,0 2.90204,-0.59896 2.90204,-0.59896 0,0 0,29.96061 0,29.96061 0,0 10.90461,-2.24385 10.90461,-2.24385 0,0 0,4.01697 0,4.01697 0,0 0,0 0,0"
           style="font-style:normal;font-weight:normal;font-size:medium;line-height:125%;font-family:sans-serif;letter-spacing:0px;word-spacing:0px;fill:#ff0000;fill-opacity:1;stroke:none;stroke-width:1px;stroke-linecap:butt;stroke-linejoin:miter;stroke-opacity:1"
           id="path5216"
           inkscape:connector-curvature="0" />
        <path
           d="m 184.75195,664.10657 c 0,1.50636 -0.16776,2.93046 -0.50329,4.27231 -0.32594,1.32524 -0.78609,2.50248 -1.38045,3.53172 -0.73816,1.27823 -1.61053,2.28674 -2.61711,3.02554 -1.00659,0.72355 -2.2768,1.19609 -3.81063,1.41766 0,0 -2.84719,0.41128 -2.84719,0.41128 0,0 0,12.66422 0,12.66422 0,0 -2.84719,0.41054 -2.84719,0.41054 0,0 0,-33.97461 0,-33.97461 0,0 5.80942,-0.84172 5.80942,-0.84172 1.28458,-0.18612 2.37265,-0.1688 3.26419,0.052 0.89154,0.20555 1.68243,0.62348 2.37266,1.25381 0.81485,0.74924 1.44277,1.7386 1.88375,2.96806 0.45056,1.2281 0.67584,2.83119 0.67584,4.80923 0,0 0,0 0,0 m -2.96223,0.54261 c 0,-1.17154 -0.12941,-2.1722 -0.38824,-3.00198 -0.25884,-0.82977 -0.65188,-1.48035 -1.17914,-1.95173 -0.46015,-0.40502 -0.98741,-0.66339 -1.58177,-0.7751 -0.58478,-0.12832 -1.32773,-0.12723 -2.22886,0.003 0,0 -2.81843,0.40813 -2.81843,0.40813 0,0 0,13.57695 0,13.57695 0,0 2.40141,-0.34708 2.40141,-0.34708 1.15038,-0.16626 2.08506,-0.46109 2.80406,-0.8845 0.71898,-0.43864 1.30375,-1.04806 1.75432,-1.82826 0.45056,-0.79545 0.76692,-1.60953 0.94907,-2.44225 0.19172,-0.83411 0.28758,-1.75325 0.28758,-2.75744 0,0 0,0 0,0"
           style="font-style:normal;font-weight:normal;font-size:medium;line-height:125%;font-family:sans-serif;letter-spacing:0px;word-spacing:0px;fill:#ff0000;fill-opacity:1;stroke:none;stroke-width:1px;stroke-linecap:butt;stroke-linejoin:miter;stroke-opacity:1"
           id="path5218"
           inkscape:connector-curvature="0" />
        <path
           d="m 203.76562,686.01172 c 0,0 -2.8184,0.24548 -2.8184,0.24548 0,0 0,-16.63539 0,-16.63539 0,0 -10.57609,0.92179 -10.57609,0.92179 0,0 0,16.63475 0,16.63475 0,0 -2.8184,0.24548 -2.8184,0.24548 0,0 0,-33.97656 0,-33.97656 0,0 2.8184,-0.24582 2.8184,-0.24582 0,0 0,13.32606 0,13.32606 0,0 10.57609,-0.92193 10.57609,-0.92193 0,0 0,-13.32656 0,-13.32656 0,0 2.8184,-0.24582 2.8184,-0.24582 0,0 0,33.97852 0,33.97852 0,0 0,0 0,0"
           style="font-style:normal;font-weight:normal;font-size:medium;line-height:125%;font-family:sans-serif;letter-spacing:0px;word-spacing:0px;fill:#ff0000;fill-opacity:1;stroke:none;stroke-width:1px;stroke-linecap:butt;stroke-linejoin:miter;stroke-opacity:1"
           id="path5220"
           inkscape:connector-curvature="0" />
        <path
           d="m 225.78906,685.42578 c 0,0 -3.00889,0.066 -3.00889,0.066 0,0 -2.08198,-9.43701 -2.08198,-9.43701 0,0 -9.18352,0.20156 -9.18352,0.20156 0,0 -2.08198,9.52838 -2.08198,9.52838 0,0 -2.86628,0.0629 -2.86628,0.0629 0,0 7.72898,-34.19307 7.72898,-34.19307 0,0 3.76468,-0.0826 3.76468,-0.0826 0,0 7.72899,33.85381 7.72899,33.85381 0,0 0,0 0,0 m -5.96074,-13.23635 c 0,0 -3.72189,-16.62156 -3.72189,-16.62156 0,0 -3.73615,16.78525 -3.73615,16.78525 0,0 7.45804,-0.16369 7.45804,-0.16369 0,0 0,0 0,0"
           style="font-style:normal;font-weight:normal;font-size:medium;line-height:125%;font-family:sans-serif;letter-spacing:0px;word-spacing:0px;fill:#ff0000;fill-opacity:1;stroke:none;stroke-width:1px;stroke-linecap:butt;stroke-linejoin:miter;stroke-opacity:1"
           id="path5222"
           inkscape:connector-curvature="0" />
        <path
           d="m 254.68359,676.54287 c 0,1.68895 -0.19961,3.16503 -0.59883,4.42823 -0.39923,1.26321 -0.93627,2.28777 -1.61115,3.07368 -0.79845,0.94395 -1.67769,1.59269 -2.63773,1.94624 -0.95053,0.35426 -2.16246,0.47576 -3.63578,0.36452 0,0 -7.52822,-0.56843 -7.52822,-0.56843 0,0 0,-33.98047 0,-33.98047 0,0 6.28777,0.47323 6.28777,0.47323 1.54937,0.11661 2.70902,0.29518 3.47894,0.53571 0.76994,0.24053 1.5066,0.67635 2.20999,1.30748 0.77944,0.71293 1.34501,1.59997 1.69671,2.6611 0.35169,1.04591 0.52754,2.284 0.52754,3.71426 0,1.61286 -0.25664,2.97053 -0.76993,4.07302 -0.51328,1.08727 -1.19767,1.94101 -2.05315,2.56121 0,0 0,0.18259 0,0.18259 1.43531,0.57986 2.56644,1.67695 3.3934,3.29127 0.82696,1.59913 1.24044,3.57792 1.24044,5.93636 0,0 0,0 0,0 m -4.74791,-15.67227 c 0,-0.82161 -0.0855,-1.52035 -0.25664,-2.0962 -0.1711,-0.57585 -0.44675,-1.05306 -0.82696,-1.43163 -0.44675,-0.44445 -0.98855,-0.73629 -1.62541,-0.87553 -0.63686,-0.15447 -1.4258,-0.26713 -2.36682,-0.33798 0,0 -3.36489,-0.25334 -3.36489,-0.25334 0,0 0,9.81321 0,9.81321 0,0 3.65004,0.27507 3.65004,0.27507 0.884,0.0666 1.5874,0.0512 2.11019,-0.0464 0.52279,-0.11274 1.00756,-0.38051 1.45431,-0.80331 0.44675,-0.42278 0.76043,-0.98493 0.94103,-1.68644 0.1901,-0.716 0.28515,-1.5685 0.28515,-2.5575 0,0 0,3e-5 0,3e-5 m 1.81077,15.6333 c 0,-1.36938 -0.12832,-2.46696 -0.38496,-3.29273 -0.25665,-0.82577 -0.72241,-1.54558 -1.39729,-2.15943 -0.45625,-0.41478 -1.01231,-0.70014 -1.66818,-0.85609 -0.64636,-0.17045 -1.4353,-0.29079 -2.36683,-0.36101 0,0 -4.43423,-0.33429 -4.43423,-0.33429 0,0 0,12.64308 0,12.64308 0,0 3.7356,0.28196 3.7356,0.28196 1.23569,0.0933 2.24801,0.0708 3.03694,-0.0675 0.78894,-0.15346 1.43531,-0.48506 1.93909,-0.99479 0.5323,-0.55323 0.92202,-1.20091 1.16915,-1.94303 0.24714,-0.74212 0.37071,-1.71419 0.37071,-2.91621 0,0 0,0 0,0"
           style="font-style:normal;font-weight:normal;font-size:medium;line-height:125%;font-family:sans-serif;letter-spacing:0px;word-spacing:0px;fill:#ff0000;fill-opacity:1;stroke:none;stroke-width:1px;stroke-linecap:butt;stroke-linejoin:miter;stroke-opacity:1"
           id="path5224"
           inkscape:connector-curvature="0" />
        <path
           d="m 270.80273,689.05859 c 0,0 -13.80468,-1.87109 -13.80468,-1.87109 0,0 0,-33.97656 0,-33.97656 0,0 2.90162,0.39082 2.90162,0.39082 0,0 0,29.96269 0,29.96269 0,0 10.90306,1.47671 10.90306,1.47671 0,0 0,4.01743 0,4.01743 0,0 0,0 0,0"
           style="font-style:normal;font-weight:normal;font-size:medium;line-height:125%;font-family:sans-serif;letter-spacing:0px;word-spacing:0px;fill:#ff0000;fill-opacity:1;stroke:none;stroke-width:1px;stroke-linecap:butt;stroke-linejoin:miter;stroke-opacity:1"
           id="path5226"
           inkscape:connector-curvature="0" />
        <path
           d="m 290.24995,663.21852 c 0.86978,1.63455 1.53406,3.55763 1.99285,5.7692 0.46834,2.21361 0.70251,4.66605 0.70251,7.35723 0,2.69118 -0.23895,5.05687 -0.71685,7.09696 -0.46834,2.02722 -1.12784,3.66515 -1.97851,4.91378 -0.87934,1.3012 -1.92116,2.2042 -3.12548,2.70904 -1.19475,0.50662 -2.56154,0.60596 -4.10038,0.2981 -1.50062,-0.30021 -2.86741,-0.95358 -4.1004,-1.96 -1.22343,-1.00437 -2.26525,-2.31561 -3.12548,-3.93369 -0.86022,-1.61791 -1.5245,-3.52517 -1.99284,-5.72183 -0.45879,-2.19461 -0.68818,-4.64283 -0.68818,-7.34476 0,-2.6581 0.22939,-4.99319 0.68818,-7.00537 0.45879,-2.02692 1.12785,-3.7056 2.00718,-5.03607 0.84111,-1.26519 1.88294,-2.15483 3.12548,-2.66892 1.2521,-0.51234 2.61412,-0.62313 4.08606,-0.33228 1.52928,0.30218 2.90085,0.96059 4.11472,1.97533 1.22343,1.00215 2.26047,2.29657 3.11114,3.88328 0,0 0,0 0,0 m -0.25807,12.5392 c 0,-4.24063 -0.62127,-7.63202 -1.86382,-10.17388 -1.24254,-2.55606 -2.93909,-4.0467 -5.08964,-4.47222 -2.16967,-0.42931 -3.87578,0.3874 -5.11832,2.44982 -1.23299,2.04931 -1.84948,5.19198 -1.84948,9.42833 0,4.28018 0.63083,7.68548 1.89249,10.21621 1.26166,2.51653 2.95343,3.98691 5.07531,4.41084 2.12188,0.42393 3.80887,-0.37205 5.06097,-2.38823 1.26166,-2.02931 1.89249,-5.18637 1.89249,-9.47087 0,0 0,0 0,0"
           style="font-style:normal;font-weight:normal;font-size:medium;line-height:125%;font-family:sans-serif;letter-spacing:0px;word-spacing:0px;fill:#ff0000;fill-opacity:1;stroke:none;stroke-width:1px;stroke-linecap:butt;stroke-linejoin:miter;stroke-opacity:1"
           id="path5228"
           inkscape:connector-curvature="0" />
        <path
           d="m 314.2793,696.43525 c -1.16573,0.48201 -2.44134,0.82937 -3.82684,1.04205 -1.37594,0.20084 -2.70888,0.11344 -3.99883,-0.26223 -1.66259,-0.4842 -3.18664,-1.28024 -4.57214,-2.38817 -1.3855,-1.10797 -2.56556,-2.50838 -3.54018,-4.20124 -0.98418,-1.7104 -1.74382,-3.70768 -2.2789,-5.99184 -0.53509,-2.29889 -0.80264,-4.87943 -0.80264,-7.74159 0,-5.23995 0.99374,-9.08169 2.98121,-11.525 1.99703,-2.45491 4.73458,-3.17437 8.21265,-2.15859 1.2135,0.3544 2.45089,0.94322 3.71217,1.76642 1.27084,0.81129 2.63723,1.96589 4.09917,3.46377 0,0 0,5.17151 0,5.17151 0,0 -0.25799,-0.0753 -0.25799,-0.0753 -0.29622,-0.43856 -0.7262,-1.0262 -1.28995,-1.76293 -0.56376,-0.73676 -1.11795,-1.37537 -1.66259,-1.91583 -0.65931,-0.64731 -1.40939,-1.24044 -2.25025,-1.77938 -0.83129,-0.55083 -1.77725,-0.98108 -2.83788,-1.29074 -2.38878,-0.69744 -4.2807,-0.0684 -5.67576,1.88713 -1.38549,1.94383 -2.07824,4.92651 -2.07824,8.94792 0,4.24157 0.72619,7.75548 2.17858,10.54162 1.45238,2.77129 3.4303,4.52153 5.93374,5.25083 0.9173,0.26723 1.82981,0.39367 2.73755,0.37933 0.9173,-0.0115 1.71993,-0.13716 2.4079,-0.37689 0,0 0,-8.0329 0,-8.0329 0,0 -5.71875,-1.66731 -5.71875,-1.66731 0,0 0,-3.82992 0,-3.82992 0,0 8.52797,2.48713 8.52797,2.48713 0,0 0,14.06214 0,14.06214 0,0 0,0 0,0"
           style="font-style:normal;font-weight:normal;font-size:medium;line-height:125%;font-family:sans-serif;letter-spacing:0px;word-spacing:0px;fill:#ff0000;fill-opacity:1;stroke:none;stroke-width:1px;stroke-linecap:butt;stroke-linejoin:miter;stroke-opacity:1"
           id="path5230"
           inkscape:connector-curvature="0" />
      </g>
    </g>
  </g>
</svg>
